# xmcd
# Copyright (C) 1995-1998 Ti Kan
#
# Track frame offsets:
#       150
#       14250
#       30000
#       44025
#       63637
#       75300
#       91682
#       106462
#       119147
#       137497
#       153472
#       165275
#
# Disc length: 2385 seconds
#
# Revision: 0
# Processed by: cddbd v1.5.2PL0 Copyright (c) Steve Scherf et al.
# Submitted via: CD-Import v1.0
#
DISCID=8b094f0c
DTITLE=Charlotte Parfois - Forever
DYEAR=06
DGENRE=
TTITLE0=Je Trompe Ta Femme
TTITLE1=Vendez Vos Rêves
TTITLE2=Les Filles
TTITLE3=Les Bonnes Résolutions
TTITLE4=Parlez-Moi D'amour
TTITLE5= - - - - -
TTITLE6=Les Souvenirs
TTITLE7=La Viande Molle
TTITLE8=De L'air
TTITLE9=Pour Tes Fesses
TTITLE10=En À Peine Un Instant
TTITLE11=Les Cousines
EXTD=
EXTT0=
EXTT1=
EXTT2=
EXTT3=
EXTT4=
EXTT5=
EXTT6=
EXTT7=
EXTT8=
EXTT9=
EXTT10=
EXTT11=
PLAYORDER=
